<svg data-v-423bf9ae="" xmlns="http://www.w3.org/2000/svg" viewBox="0 0 508 90" class="iconLeft"><!----><!----><!----><g data-v-423bf9ae="" id="96012a8f-3566-4139-82cc-0d1fa5e408fc" fill="#253D52" transform="matrix(5.769230451809602,0,0,5.769230451809602,105.92069952480904,-4.153844953288775)"><path d="M6.66 6.47C6.66 7.83 5.26 8.74 3.21 8.74C2.73 8.74 2.69 8.72 2.69 8.57L2.69 4.58C2.69 4.41 2.77 4.37 3.54 4.37C5.53 4.37 6.66 5.31 6.66 6.47ZM0.97 3.88L0.62 3.88C0.41 3.88 0.31 3.98 0.31 4.19C0.31 4.54 0.50 4.55 0.64 4.55L1.15 4.55C1.44 4.55 1.46 4.75 1.46 4.91L1.46 12.40C1.46 12.63 1.39 12.74 1.06 12.78C0.34 12.85 0.20 12.80 0.20 13.19C0.20 13.34 0.25 13.52 0.48 13.52C0.55 13.52 1.37 13.44 2.42 13.44C3.44 13.44 4.28 13.52 4.35 13.52C4.58 13.52 4.62 13.36 4.62 13.19L4.62 13.17C4.62 12.75 4.44 12.84 3.11 12.78C2.74 12.75 2.66 12.60 2.66 12.29L2.66 9.45C2.66 9.31 2.70 9.23 2.84 9.23L3.26 9.23C5.00 9.23 5.88 8.95 6.41 8.65C7.18 8.25 7.83 7.46 7.84 6.41L7.84 6.40C7.84 5.71 7.53 5.04 7.03 4.58C6.36 3.98 5.46 3.74 4.30 3.74C3.29 3.74 2.30 3.88 0.97 3.88ZM8.41 8.61C8.41 8.93 8.71 9.11 8.97 9.11C9.16 9.11 9.24 9.02 9.28 8.96C9.31 8.90 9.69 8.02 10.49 8.02C10.85 8.02 11.13 8.22 11.30 8.40C11.58 8.72 11.63 9.07 11.63 9.52L11.63 10.02C11.63 10.12 11.62 10.19 11.52 10.22C11.49 10.23 9.81 10.29 9.06 10.89C8.72 11.16 8.47 11.61 8.47 12.14L8.47 12.15C8.47 13.01 9.10 13.72 10.07 13.72C10.58 13.72 11.05 13.54 11.37 13.33C11.72 13.09 11.68 13.02 11.75 13.02C11.76 13.02 11.76 13.03 11.77 13.03C11.80 13.05 12.14 13.61 12.77 13.61C13.50 13.61 13.85 12.82 13.85 12.50C13.85 12.38 13.78 12.32 13.72 12.32C13.51 12.32 13.54 12.78 13.10 12.78C12.96 12.78 12.63 12.71 12.63 12.17L12.63 9.41C12.63 9.24 12.61 9.07 12.60 8.90C12.46 7.53 11.10 7.36 10.57 7.36C9.41 7.36 8.41 8.11 8.41 8.61ZM10.40 12.95C10.22 12.95 9.97 12.92 9.80 12.77C9.58 12.57 9.51 12.22 9.51 12.00C9.51 11.65 9.66 11.40 9.84 11.24C10.30 10.81 11.26 10.74 11.51 10.74C11.63 10.74 11.65 10.81 11.65 11.14L11.65 11.72L11.65 12.05C11.65 12.18 11.63 12.28 11.56 12.38C11.49 12.47 11.09 12.95 10.40 12.95ZM14.49 8.33L14.94 8.33C15.02 8.33 15.04 8.39 15.04 8.46C15.04 8.76 14.98 10.93 14.98 11.55C14.98 11.70 14.98 11.84 14.99 12.00C15.09 13.31 15.85 13.71 16.41 13.71C17.18 13.71 17.86 13.01 18.35 12.45C18.38 12.40 18.45 12.32 18.45 12.21C18.45 12.08 18.35 11.96 18.20 11.96C17.89 11.96 17.35 12.80 16.67 12.80C16.09 12.80 15.96 12.25 15.96 11.76C15.96 11.42 15.96 11.10 15.97 8.48C15.97 8.39 16.02 8.36 16.11 8.36L17.75 8.36C17.88 8.36 17.95 8.34 18.00 8.29C18.07 8.20 18.13 7.97 18.13 7.88C18.13 7.62 17.89 7.62 17.77 7.62C17.72 7.62 17.70 7.60 17.65 7.60L16.39 7.60C16.23 7.60 16.11 7.56 16.11 7.32C16.11 7.13 16.13 6.54 16.13 6.34C16.13 6.16 16.03 6.12 15.95 6.12C15.79 6.12 15.71 6.30 15.67 6.37C14.91 7.66 14.21 7.91 14.21 8.15C14.21 8.32 14.36 8.33 14.49 8.33ZM18.90 10.56C18.90 12.95 20.45 13.71 21.60 13.71C22.60 13.71 23.51 13.20 24.08 12.46C24.15 12.38 24.18 12.29 24.18 12.24C24.18 12.11 24.08 12.03 23.95 12.03C23.81 12.03 23.70 12.15 23.63 12.22C23.20 12.64 22.58 12.91 21.97 12.91C20.20 12.91 19.89 11.05 19.89 10.88C19.89 10.75 19.98 10.77 22.88 9.77C23.28 9.63 24.01 9.49 24.01 9.07L24.01 9.06C24.01 8.93 23.95 8.82 23.90 8.75C23.38 8.04 22.46 7.41 21.49 7.41C20.09 7.41 18.90 8.60 18.90 10.56ZM22.65 9.10C22.65 9.16 22.61 9.23 22.53 9.27C22.50 9.28 19.95 10.28 19.91 10.28C19.88 10.28 19.84 10.26 19.84 10.18C19.84 8.93 20.37 8.18 21.18 8.18C21.97 8.18 22.65 8.93 22.65 9.10ZM26.29 8.16C26.29 8.15 26.31 8.11 26.31 8.08L26.31 7.53C26.31 7.42 26.26 7.32 26.14 7.32C26.08 7.32 26.04 7.35 26.00 7.38C24.70 8.08 24.67 8.06 24.67 8.18L24.67 8.19C24.67 8.25 24.71 8.29 24.75 8.33C25.38 8.81 25.38 8.78 25.38 9.11L25.38 12.46C25.38 12.70 25.37 12.88 25.02 12.94C24.58 13.01 24.47 12.99 24.47 13.27C24.47 13.47 24.61 13.52 24.70 13.52C24.74 13.52 25.26 13.44 25.93 13.44C26.61 13.44 27.19 13.54 27.23 13.54C27.36 13.54 27.41 13.43 27.41 13.29C27.41 12.98 27.24 13.01 26.66 12.91C26.36 12.87 26.35 12.67 26.35 12.52L26.35 12.47L26.35 9.16C26.35 9.10 26.35 9.03 26.36 8.97C26.42 8.72 26.99 8.06 27.80 8.06C28.13 8.06 28.90 8.19 29.20 8.90C29.37 9.32 29.39 10.16 29.39 10.42L29.39 12.59C29.39 12.82 29.34 12.89 29.16 12.92C28.60 13.02 28.43 12.99 28.43 13.24C28.43 13.38 28.46 13.52 28.63 13.52C28.66 13.52 29.16 13.44 29.78 13.44C30.48 13.44 30.83 13.52 30.95 13.52C31.04 13.52 31.16 13.48 31.16 13.24C31.16 13.15 31.15 13.02 30.97 12.99C30.48 12.92 30.30 12.95 30.30 12.56L30.30 12.53C30.30 10.60 30.31 10.35 30.31 10.11C30.31 9.87 30.31 9.63 30.28 9.39C30.14 7.66 28.92 7.38 28.29 7.38L28.27 7.38C27.06 7.39 26.40 8.22 26.35 8.22L26.33 8.22C26.32 8.22 26.29 8.20 26.29 8.16ZM31.86 8.33L32.31 8.33C32.40 8.33 32.41 8.39 32.41 8.46C32.41 8.76 32.35 10.93 32.35 11.55C32.35 11.70 32.35 11.84 32.37 12.00C32.47 13.31 33.22 13.71 33.78 13.71C34.55 13.71 35.24 13.01 35.73 12.45C35.76 12.40 35.83 12.32 35.83 12.21C35.83 12.08 35.73 11.96 35.57 11.96C35.27 11.96 34.72 12.80 34.05 12.80C33.46 12.80 33.33 12.25 33.33 11.76C33.33 11.42 33.33 11.10 33.35 8.48C33.35 8.39 33.39 8.36 33.49 8.36L35.13 8.36C35.25 8.36 35.32 8.34 35.38 8.29C35.45 8.20 35.50 7.97 35.50 7.88C35.50 7.62 35.27 7.62 35.14 7.62C35.10 7.62 35.07 7.60 35.03 7.60L33.77 7.60C33.60 7.60 33.49 7.56 33.49 7.32C33.49 7.13 33.50 6.54 33.50 6.34C33.50 6.16 33.40 6.12 33.32 6.12C33.17 6.12 33.08 6.30 33.04 6.37C32.28 7.66 31.58 7.91 31.58 8.15C31.58 8.32 31.74 8.33 31.86 8.33ZM37.23 3.84C36.82 3.84 36.61 3.82 36.55 3.82C36.39 3.82 36.30 3.92 36.30 4.07C36.30 4.37 36.41 4.42 36.55 4.42C37.03 4.47 37.28 4.48 37.28 4.87L37.28 12.53C37.28 12.77 37.14 12.78 36.99 12.81C36.39 12.88 36.20 12.87 36.20 13.13C36.20 13.45 36.33 13.47 36.47 13.47L36.50 13.47C37.13 13.47 37.60 13.44 38.09 13.44C38.74 13.44 39.37 13.52 40.01 13.52C41.02 13.52 41.54 13.27 41.69 13.20C42.52 12.84 43.47 11.90 43.47 10.56C43.47 9.31 42.60 8.33 41.52 8.12C41.50 8.11 41.48 8.09 41.48 8.08C41.48 8.06 41.50 8.05 41.51 8.04C42.25 7.57 42.84 6.76 42.84 5.88C42.84 5.12 42.39 4.56 41.99 4.27C41.26 3.77 40.24 3.71 39.66 3.71C38.82 3.71 38.08 3.84 37.23 3.84ZM41.59 6.17C41.59 6.45 41.52 6.72 41.40 6.97C40.95 7.83 40.00 7.87 39.44 7.87L39.26 7.87L38.63 7.87C38.50 7.87 38.49 7.80 38.49 7.69L38.49 4.69L38.49 4.66C38.49 4.61 38.49 4.54 38.56 4.48C38.70 4.37 39.26 4.33 39.54 4.33C41.17 4.33 41.59 5.50 41.59 6.17ZM39.56 12.87C39.34 12.87 39.12 12.84 38.91 12.81C38.50 12.74 38.49 12.53 38.49 12.29L38.49 8.68C38.49 8.57 38.50 8.47 38.68 8.47L39.40 8.47C39.79 8.47 40.19 8.47 40.57 8.55C41.79 8.82 42.22 9.80 42.22 10.63C42.22 12.10 40.95 12.87 39.56 12.87ZM48.89 12.98C48.90 12.98 48.93 12.98 48.93 13.03L48.93 13.36C48.93 13.50 48.96 13.64 49.13 13.64C49.18 13.64 49.24 13.61 49.28 13.58C50.48 12.92 50.68 13.24 50.68 12.82C50.68 12.74 50.67 12.70 50.57 12.66C49.95 12.36 49.87 12.40 49.87 12.24L49.87 7.85C49.87 7.71 49.85 7.57 49.66 7.57C49.48 7.57 49.31 7.59 47.94 7.63C47.82 7.64 47.74 7.69 47.74 7.87C47.74 8.01 47.81 8.06 47.95 8.09C48.66 8.22 48.87 8.20 48.87 8.60L48.87 12.04C48.87 12.21 48.85 12.22 48.64 12.46C48.38 12.71 47.98 12.96 47.45 12.96C46.70 12.96 46.19 12.46 45.96 12.03C45.71 11.52 45.71 11.00 45.71 10.58L45.71 7.71C45.71 7.62 45.68 7.55 45.57 7.55C45.43 7.55 45.28 7.56 44.11 7.63C43.97 7.64 43.96 7.73 43.96 7.83L43.96 7.87C43.96 8.11 44.14 8.05 44.39 8.16C44.77 8.30 44.77 8.43 44.77 8.55C44.77 8.78 44.76 10.36 44.76 10.81C44.76 11.10 44.77 11.38 44.80 11.66C44.97 12.95 45.81 13.69 46.94 13.69C48.10 13.69 48.82 12.98 48.89 12.98ZM51.49 8.33L51.94 8.33C52.02 8.33 52.04 8.39 52.04 8.46C52.04 8.76 51.98 10.93 51.98 11.55C51.98 11.70 51.98 11.84 52.00 12.00C52.09 13.31 52.85 13.71 53.41 13.71C54.18 13.71 54.87 13.01 55.36 12.45C55.38 12.40 55.45 12.32 55.45 12.21C55.45 12.08 55.36 11.96 55.20 11.96C54.89 11.96 54.35 12.80 53.68 12.80C53.09 12.80 52.96 12.25 52.96 11.76C52.96 11.42 52.96 11.10 52.98 8.48C52.98 8.39 53.02 8.36 53.12 8.36L54.75 8.36C54.88 8.36 54.95 8.34 55.01 8.29C55.08 8.20 55.13 7.97 55.13 7.88C55.13 7.62 54.89 7.62 54.77 7.62C54.73 7.62 54.70 7.60 54.66 7.60L53.40 7.60C53.23 7.60 53.12 7.56 53.12 7.32C53.12 7.13 53.13 6.54 53.13 6.34C53.13 6.16 53.03 6.12 52.95 6.12C52.79 6.12 52.71 6.30 52.67 6.37C51.91 7.66 51.21 7.91 51.21 8.15C51.21 8.32 51.37 8.33 51.49 8.33ZM58.79 13.24C58.79 13.06 58.72 12.99 58.55 12.96C57.99 12.87 57.83 12.89 57.83 12.45L57.83 3.58C57.83 3.46 57.81 3.32 57.64 3.32C57.57 3.32 57.51 3.35 57.47 3.37C55.78 4.26 55.75 4.23 55.75 4.34L55.75 4.35C55.75 4.51 55.93 4.56 56.49 4.90C56.73 5.04 56.81 5.04 56.81 5.25L56.81 12.38C56.81 12.66 56.78 12.87 56.42 12.91C55.94 12.96 55.85 12.95 55.85 13.22L55.85 13.26C55.85 13.36 55.86 13.51 56.04 13.51C56.08 13.51 56.63 13.44 57.30 13.44C58.00 13.44 58.58 13.52 58.62 13.52C58.76 13.52 58.79 13.41 58.79 13.24ZM59.25 10.56C59.25 12.95 60.80 13.71 61.95 13.71C62.94 13.71 63.85 13.20 64.43 12.46C64.50 12.38 64.53 12.29 64.53 12.24C64.53 12.11 64.43 12.03 64.30 12.03C64.16 12.03 64.05 12.15 63.98 12.22C63.55 12.64 62.93 12.91 62.31 12.91C60.55 12.91 60.24 11.05 60.24 10.88C60.24 10.75 60.33 10.77 63.22 9.77C63.63 9.63 64.36 9.49 64.36 9.07L64.36 9.06C64.36 8.93 64.30 8.82 64.25 8.75C63.73 8.04 62.80 7.41 61.84 7.41C60.44 7.41 59.25 8.60 59.25 10.56ZM63 9.10C63 9.16 62.96 9.23 62.87 9.27C62.85 9.28 60.30 10.28 60.26 10.28C60.23 10.28 60.19 10.26 60.19 10.18C60.19 8.93 60.72 8.18 61.53 8.18C62.31 8.18 63 8.93 63 9.10ZM66.70 8.16C66.67 8.16 66.65 8.13 66.65 8.09L66.65 7.53C66.65 7.41 66.64 7.25 66.49 7.25C66.44 7.25 66.40 7.28 66.36 7.29C64.90 8.01 64.89 7.98 64.89 8.05C64.90 8.11 64.93 8.13 64.95 8.15C65.60 8.62 65.72 8.61 65.72 8.89L65.72 12.60C65.72 12.81 65.66 12.89 65.46 12.94C65.09 13.03 64.83 12.95 64.83 13.29C64.83 13.43 64.92 13.52 65.06 13.52C65.10 13.52 65.70 13.44 66.49 13.44C67.24 13.44 67.86 13.52 67.90 13.52C68.08 13.52 68.10 13.36 68.10 13.24C68.10 12.92 67.91 12.98 67.07 12.91C66.74 12.88 66.72 12.64 66.72 12.49L66.72 12.43L66.72 9.07C66.72 8.97 66.72 8.90 66.78 8.82C66.86 8.69 67.42 8.25 67.87 8.25C68.33 8.25 68.35 8.60 68.70 8.60C68.94 8.60 69.12 8.41 69.27 8.32C69.38 8.22 69.64 8.06 69.65 7.83L69.65 7.81C69.65 7.42 69.01 7.20 68.56 7.20C68.40 7.20 68.28 7.21 68.15 7.25C67.77 7.39 66.75 8.16 66.70 8.16Z"></path></g><defs data-v-423bf9ae=""><linearGradient data-v-423bf9ae="" gradientTransform="rotate(25)" id="2cc2f0dd-6ac5-440f-88de-a6cb52c2fc51" x1="0%" y1="0%" x2="100%" y2="0%"><stop data-v-423bf9ae="" offset="0%" style="stop-color: rgb(0, 125, 232); stop-opacity: 1;"></stop><stop data-v-423bf9ae="" offset="100%" style="stop-color: rgb(161, 195, 219); stop-opacity: 1;"></stop></linearGradient></defs><g data-v-423bf9ae="" id="64c42c21-8ecc-41b1-9ff3-5f7957ef156f" transform="matrix(1.3370373518760945,0,0,1.3370373518760945,-22.393302759312476,-20.11858635551232)" stroke="none" fill="url(#2cc2f0dd-6ac5-440f-88de-a6cb52c2fc51)"><path d="M57.712 70.215H42.03a1.5 1.5 0 0 1-1.5-1.5v-1.113c0-2.39-1.513-4.818-3.113-7.389-2.127-3.414-4.536-7.282-4.536-12.396 0-9.296 7.563-16.859 16.858-16.859s16.859 7.563 16.859 16.859c0 4.357-2.1 7.982-4.13 11.489-1.676 2.896-3.257 5.629-3.257 8.296v1.113a1.5 1.5 0 0 1-1.499 1.5zm-14.191-3h12.697c.126-3.315 1.841-6.278 3.651-9.409 1.834-3.167 3.729-6.438 3.729-9.989 0-7.642-6.218-13.859-13.859-13.859s-13.858 6.218-13.858 13.859c0 4.257 2.075 7.588 4.082 10.81 1.683 2.703 3.423 5.495 3.558 8.588zM56.599 76.5H43.145a1.5 1.5 0 0 1 0-3h13.454a1.5 1.5 0 0 1 0 3zM53.961 82.5h-8.179a1.5 1.5 0 0 1 0-3h8.179a1.5 1.5 0 0 1 0 3zM49.739 25.706a1.5 1.5 0 0 1-1.5-1.5v-7.519a1.5 1.5 0 0 1 3 0v7.519a1.5 1.5 0 0 1-1.5 1.5zM66.755 32.301a1.5 1.5 0 0 1-1.061-2.56l5.54-5.539a1.5 1.5 0 1 1 2.121 2.121l-5.54 5.539a1.497 1.497 0 0 1-1.06.439zM27.448 71.871a1.499 1.499 0 0 1-1.085-2.536l5.54-5.804a1.5 1.5 0 0 1 2.17 2.072l-5.54 5.804a1.494 1.494 0 0 1-1.085.464zM81 49.316h-7.255a1.5 1.5 0 0 1 0-3H81a1.5 1.5 0 0 1 0 3zM25.998 49.316h-7.123a1.5 1.5 0 0 1 0-3h7.123a1.5 1.5 0 0 1 0 3zM32.856 32.434c-.384 0-.768-.146-1.061-.439l-5.276-5.276a1.5 1.5 0 1 1 2.121-2.121l5.276 5.276a1.5 1.5 0 0 1-1.06 2.56zM72.163 71.476c-.384 0-.768-.146-1.061-.439l-5.276-5.276a1.5 1.5 0 1 1 2.121-2.121l5.276 5.276a1.5 1.5 0 0 1-1.06 2.56z"></path><path d="M43.556 55.327c-.384 0-.768-.146-1.061-.439-3.998-3.999-3.998-10.506 0-14.505 4.001-3.998 10.507-3.997 14.504 0a1.5 1.5 0 1 1-2.121 2.121c-2.828-2.828-7.432-2.828-10.262 0-2.828 2.829-2.828 7.434 0 10.263a1.5 1.5 0 0 1-1.06 2.56z"></path></g><!----></svg>